<?xml version="1.0" encoding="utf-8"?>
<!-- Generator: Adobe Illustrator 16.0.0, SVG Export Plug-In . SVG Version: 6.00 Build 0)  -->
<!DOCTYPE svg PUBLIC "-//W3C//DTD SVG 1.1//EN" "http://www.w3.org/Graphics/SVG/1.1/DTD/svg11.dtd">
<svg version="1.1" xmlns="http://www.w3.org/2000/svg" xmlns:xlink="http://www.w3.org/1999/xlink" x="0px" y="0px" width="3000px"
	 height="2750px" viewBox="-500 -490 3000 2750" enable-background="new -500 -490 3000 2750" xml:space="preserve">
<g id="background">
</g>
<g id="detail">
	
		<image overflow="visible" width="16951" height="14341" xlink:href="./media/448F9E9B79D1071F.png"  transform="matrix(0.24 0 0 0.24 -1122.1914 -1034.9072)">
	</image>
	<g id="pipelines_1_">
		<g id="wisc-and-mich">
			
				<path id="line-14" fill="none" stroke="#A36BAC" stroke-width="3" stroke-linecap="round" stroke-linejoin="round" stroke-miterlimit="10" d="
				M851.787,443.105C851.5,444.5,851.5,446.5,851.5,447.5c7,15,17,28,21.739,43.526c-0.495-0.648,14.21,36.843,13.644,35.404
				c3.617,7.07,6.617,13.07,10.617,20.07c10,16,20,31,30,48c18,31,58.412,88.201,64.25,96.25
				c6.111,8.424,12.833,15.294,19.941,22.835c14.491,15.373,27.255,32.238,40.036,49.027c8.011,10.523,16.448,20.524,22.689,32.232
				c4.949,9.286,16.85,26.543,16.535,26.272c8.961,19.917,16.95,40.273,26.596,59.879c-0.32-0.562,2.405,2.676,3.446,5.205
				c-0.01-0.278,8.506,13.299,12.506,21.299c9,14,19,25.25,30,37.25c3,4,6.244,8.221,8.244,13.221
				c13,28,26.756,54.529,39.756,82.529c1,2,0,3,1,5c4,7,6,15,10.5,20.834c-0.283-1.491-0.408-1.461,0,0"/>
			
				<path id="line-61_2_" fill="none" stroke="#6CBF70" stroke-width="3" stroke-linecap="round" stroke-linejoin="round" stroke-miterlimit="10" d="
				M848.787,446.105C848.5,447.5,848.5,449.5,848.5,450.5c7,15,17,28,21.739,43.526c-0.495-0.648,14.21,36.843,13.644,35.404
				c3.617,7.07,6.617,13.07,10.617,20.07c10,16,20,31,30,48c18,31,58.412,88.201,64.25,96.25
				c6.111,8.424,12.833,15.294,19.941,22.835c14.491,15.373,27.255,32.238,40.036,49.027c8.011,10.523,16.448,20.524,22.689,32.232
				c4.949,9.286,16.85,26.543,16.535,26.272c8.961,19.917,16.95,40.273,26.596,59.879c-0.32-0.562,2.405,2.676,3.446,5.205
				c-0.01-0.278,8.506,13.299,12.506,21.299c9,14,19,25.25,30,37.25c3,4,6.244,8.221,8.244,13.221
				c5.885,12.675,6.479,25.696,7.095,39.426c0.35,7.797,2.081,15.446,3.999,22.984c1.461,5.741,2.781,11.517,4.27,17.251
				c1.334,5.141,3.372,10.354,3.029,15.751c-0.229,3.596-1.36,7.241-0.387,10.822"/>
			
				<path id="line-61-twin" fill="none" stroke="#3887C8" stroke-width="3" stroke-linecap="round" stroke-linejoin="round" stroke-miterlimit="10" d="
				M843.787,446.105C843.5,447.5,843.5,449.5,843.5,450.5c7,15,17,28,21.739,43.526c-0.495-0.648,14.21,36.843,13.644,35.404
				c3.617,7.07,6.617,13.07,10.617,20.07c10,16,20,31,30,48c18,31,58.412,88.201,64.25,96.25
				c6.111,8.424,12.833,15.294,19.941,22.835c14.491,15.373,27.255,32.238,40.036,49.027c8.011,10.523,16.448,20.524,22.689,32.232
				c4.949,9.286,16.85,26.543,16.535,26.272c8.961,19.917,16.95,40.273,26.596,59.879c-0.32-0.562,2.405,2.676,3.446,5.205
				c-0.01-0.278,8.506,13.299,12.506,21.299c9,14,19,25.25,30,37.25c3,4,6.244,8.221,8.244,13.221
				c5.885,12.675,6.479,25.696,7.095,39.426c0.35,7.797,2.081,15.446,3.999,22.984c1.461,5.741,2.781,11.517,4.27,17.251
				c1.334,5.141,3.372,10.354,3.029,15.751c-0.229,3.596-1.36,7.241-0.387,10.822"/>
			
				<path id="line-61_1_" fill="none" stroke="#C63F32" stroke-width="3" stroke-linecap="round" stroke-linejoin="round" stroke-miterlimit="10" d="
				M855.787,442.105C855.5,443.5,855.5,445.5,855.5,446.5c7,15,17,28,21.739,43.526c-0.495-0.648,14.21,36.843,13.644,35.404
				c3.617,7.07,6.617,13.07,10.617,20.07c10,16,20,31,30,48c18,31,58.412,88.201,64.25,96.25
				c6.111,8.424,12.833,15.294,19.941,22.835c14.491,15.373,27.255,32.238,40.036,49.027c8.011,10.523,16.448,20.524,22.689,32.232
				c4.949,9.286,16.85,26.543,16.535,26.272c8.961,19.917,16.95,40.273,26.596,59.879c-0.32-0.562,2.405,2.676,3.446,5.205
				c-0.01-0.278,8.506,13.299,12.506,21.299c9,14,19,25.25,30,37.25c3,4,6.244,8.221,8.244,13.221
				c13,28,26.756,54.529,39.756,82.529c1,2,0,3,1,5c4,7,6,15,10.5,20.834c-0.283-1.491-0.408-1.461,0,0"/>
			
				<path id="line-6a" display="none" fill="none" stroke="#C63F32" stroke-width="3" stroke-linecap="round" stroke-linejoin="round" stroke-miterlimit="10" d="
				M854.075,444.628c3.089,8.09,7.369,15.606,11.606,23.141c4.237,7.535,8.431,15.089,11.349,23.257
				c-0.244-0.326,3.309,8.885,6.852,17.997c3.543,9.112,7.076,18.126,6.793,17.407c4.913,10.535,10.619,20.552,16.723,30.561
				C913.5,567,920,577,926.5,587.5c10.562,16.598,29.023,43.803,46.488,68.755c3.719,5.314,7.456,10.616,11.214,15.902
				c1.771,2.49,3.545,4.976,5.327,7.458c7.699,10.725,15.284,21.859,23.971,31.884c13.5,16,26.969,31.301,39.562,47.226
				s24.312,32.476,34.312,50.976c0.5,1.5,2.42,4.421,4.177,6.934c1.756,2.512,3.348,4.616,3.19,4.48
				c4.479,9.959,8.718,20.027,13.042,30.056c4.324,10.029,8.733,20.02,13.555,29.823c-0.16-0.281,0.44,0.388,1.212,1.443
				s1.713,2.498,2.234,3.762c-0.005-0.139,2.174,3.936,5.229,8.92S1137,906,1140.5,909.5c19.641,23.67,35.124,48.631,48.668,74.436
				c13.545,25.804,25.15,52.449,37.036,79.488c-0.285-0.438-0.286-0.091-0.116,0.618s0.512,1.78,0.912,2.792"/>
			<path id="line-5" fill="none" stroke="#ECA820" stroke-width="3" stroke-miterlimit="10" d="M1881.83,966.889
				c-2.33-2.389-4.33-2.389-7.33-3.389c-2-1-4-3-7-4c-1,0-3,0-4-1c-34-22-67-36-104-49c-11-3-18-13-28-20c-2-1-5,0-7,0c-3-1-7-1-9-3
				c-3-4-4-9-5-14c-5-27-14-51-23-76c-2-5-5-10-6-16c-1-3-3-5-4-7c-15-45-31-88-47-132c-4-13-6-27-10-40c-3-9-18-48-30-66
				c-3-4,0-7,0-11c0-1-17-15-27-23c-6-4-12-7-19-10c-4-1-9-2-13-3c-5,0-9,0-14,0c-15,2-28,7-43,6c-2,0-4,1-6,3c-3,3-5,8-8,10
				c-10,5-18,12-28,18c-2,1-4,1-6.36,1.155c1.163-0.165-9.64-1.155-15.64-0.155c-15,3-85-7-109-13c-31,1-63,10-94,1c-4-1-9,1-13,1
				c-6,0-12-4-19-6c-14-2-24-12-38-14c-1,0-2-2-3-2c-3-1-6-1-8-2c-11-9-25-10-37-16c-3-2-6-3-8-7c-6-7-15-6-23-5c-18,3-34,4-52,0
				c-2,0-3,0-5,0c-4-1-8-2-12.098-3.337c1.327-0.029-10.902,0.337-18.902-0.663c-12-2-24-6-36-7c-21-1-41-2-62-5
				c-6-1-13,1-19.25-0.75c2.653,0.263,5.308,0.548,7.966,0.753c-2.646-0.312-5.311-0.521-7.966-0.753"/>
		</g>
		<g id="into-superior">
			<path fill="none" stroke="#CCCCCC" stroke-width="4" stroke-linecap="round" stroke-linejoin="round" d="M-632.563-424.529
				c4.063,2.029,6.063,6.029,9.063,8.029c32,21,58,41,89,63c7,6,13,10,20,16c13,9,25,16,37,25c48,36,89,69,139,101c1,1,3,0,4,1
				c3,3,6,5,9,7c49,22,97,43,146,66c73,33,146,64,220,95c74,30,146,60,220,90c17,6,33,12,50,17c9,3,13,11,19,18c7,10,14,18,22,27
				c23,30,46,56,70,85c9,11,15,24,26,33c5,3,9,5,14,8c19,13,35,26,54,35c9,5,18,9,27,14c11,6,17,17,27,26c6,5,12,10,20,12
				c31,5,61,6,92,10c5,1,10,2,15,4c12,6,20,17,32,24c2,2,4,4,6,6c1,1,3,1,4,2c23,21,41,45,64,66c3,2,8,2,12,3
				c5.412,1.353,9.359,5.125,15.378,4.703c2.605-0.183,4.37-0.939,7.047-0.398c2.479,0.501,4.83,1.506,7.318,1.971
				c2.513,0.469,4.804,0.542,7.257,1.724"/>
			<path fill="none" stroke="#CCCCCC" stroke-width="4" stroke-linecap="round" stroke-linejoin="round" d="M-634.563-419.529
				c4.063,2.029,6.063,6.029,9.063,8.029c32,21,58,41,89,63c7,6,13,10,20,16c13,9,25,16,37,25c48,36,89,69,139,101c1,1,3,0,4,1
				c3,3,6,5,9,7c49,22,97,43,146,66c73,33,146,64,220,95c74,30,146,60,220,90c17,6,33,12,50,17c9,3,13,11,19,18c7,10,14,18,22,27
				c23,30,46,56,70,85c9,11,15,24,26,33c5,3,9,5,14,8c19,13,35,26,54,35c9,5,18,9,27,14c11,6,17,17,27,26c6,5,12,10,20,12
				c31,5,61,6,92,10c5,1,10,2,15,4c12,6,20,17,32,24c2,2,4,4,6,6c1,1,3,1,4,2c22,20,39,42,61,62c7,7,17,9,27,12
				c2.103,1.051,4.573,0.007,6.625-0.608c2.064-0.62,3.68-0.803,5.947-0.684c5.073,0.266,10.087,1.292,15.178,1.292"/>
			<path fill="none" stroke="#CCCCCC" stroke-width="4" stroke-linecap="round" stroke-linejoin="round" d="M-636.563-414.529
				c4.063,2.029,6.063,6.029,9.063,8.029c32,21,58,41,89,63c7,6,13,10,20,16c13,9,25,16,37,25c48,36,89,69,139,101c1,1,3,0,4,1
				c3,3,6,5,9,7c49,22,97,43,146,66c73,33,146,64,220,95c74,30,146,60,220,90c17,6,33,12,50,17c9,3,13,11,19,18c7,10,14,18,22,27
				c23,30,46,56,70,85c9,11,15,24,26,33c5,3,9,5,14,8c19,13,35,26,54,35c9,5,18,9,27,14c11,6,17,17,27,26c6,5,12,10,20,12
				c31,5,61,6,92,10c5,1,10,2,15,4c12,6,20,17,32,24c2,2,4,4,6,6c1,1,3,1,4,2c24,21,41,45,64,66c8,1,14,6,22,8
				c5.796,1.449,12.41-1.449,17.94-2.887c2.272-0.591,5.199-0.113,7.561-0.113"/>
		</g>
		<g id="other">
			
				<path fill="none" stroke="#CCCCCC" stroke-width="4" stroke-linecap="square" stroke-linejoin="round" stroke-miterlimit="10" d="
				M1222.75,1067.5c1.708,8.957,3.611,18.034,5.453,27.229c1.636,8.167,2.33,16.455,2.852,24.765
				c0.487,7.771,2.361,15.515,3.176,23.286c0.753,7.195,3.492,13.867,4.213,20.973c0.715,7.038,1.702,13.631,3.494,20.491
				c2.017,7.72,3.256,16.294,12.333,17.519c6.02,0.812,12.632,0.338,18.684,0.044c7.441-0.361,16.155,0.589,23.353-1.163
				c14.462-3.521,30.022-3.053,44.693-5.643"/>
			
				<path fill="none" stroke="#CCCCCC" stroke-width="4" stroke-linecap="square" stroke-linejoin="round" stroke-miterlimit="10" d="
				M1226.75,1067.5c1.708,8.957,3.611,18.034,5.453,27.229c1.636,8.167,2.33,16.455,2.852,24.765
				c0.487,7.771,2.361,15.515,3.176,23.286c0.753,7.195,3.492,13.867,4.213,20.973c0.715,7.038,1.702,13.631,3.494,20.491
				c2.017,7.72,3.256,16.294,12.333,17.519c6.02,0.812,12.632,0.338,18.684,0.044c7.441-0.361,16.155,0.589,23.353-1.163
				c14.462-3.521,30.022-3.053,44.693-5.643"/>
			
				<path fill="none" stroke="#CCCCCC" stroke-width="4" stroke-linecap="square" stroke-linejoin="round" stroke-miterlimit="10" d="
				M1186.75,1068.25c1.045,3.903,0.609,8.912,0.993,13.025c0.345,3.7,0.809,7.399,1.263,11.081
				c1.016,8.233,4.504,15.754,4.494,24.169c-0.01,7.928-0.443,15.987-0.006,23.901c0.211,3.814,1.068,7.58,1.256,11.323"/>
			
				<path id="line-61-twin-illinois" fill="none" stroke="#CCCCCC" stroke-width="4" stroke-linecap="square" stroke-linejoin="round" stroke-miterlimit="10" d="
				M1182,1068.25c-0.366,2.838,1.287,6.677,1.506,9.636c0.331,4.493,0.896,8.906,1.488,13.356
				c1.256,9.443,2.772,18.766,4.005,28.202c0.831,6.358,3.042,12.267,3.695,18.438c0.518,4.885,1.556,9.804,1.556,14.618"/>
		</g>
	</g>
	<g id="oil-spills">
		<circle id="marshall" fill="#333333" cx="1615.999" cy="1084.824" r="4.565"/>
		<circle id="romeoville" fill="#333333" cx="1241.013" cy="1192.225" r="4.565"/>
		<circle id="new-lenox" fill="#333333" cx="1247.993" cy="1204.027" r="4.565"/>
		<circle id="griffith-3" fill="#333333" cx="1349.077" cy="1198.129" r="4.565"/>
		<circle id="griffith-2" fill="#333333" cx="1349.077" cy="1198.129" r="4.565"/>
		<circle id="griffith-1_2_" fill="#333333" cx="1349.077" cy="1198.129" r="4.565"/>
		<circle id="mokena" fill="#333333" cx="1259" cy="1202.693" r="4.565"/>
		<circle id="shererville" fill="#333333" cx="1343.772" cy="1198.129" r="4.565"/>
		<circle id="exeland" fill="#333333" cx="943.502" cy="620.903" r="4.565"/>
		<circle id="atwood" fill="#333333" cx="1009.959" cy="713.27" r="4.564"/>
		<circle id="grand-marsh" fill="#333333" cx="1102.706" cy="851.81" r="4.564"/>
		<circle id="neche" fill="#333333" cx="333.807" cy="95.919" r="4.565"/>
		<circle id="clearbrook" fill="#333333" cx="524.57" cy="282.954" r="4.565"/>
		<circle id="cass-lake" fill="#333333" cx="612.065" cy="331.14" r="4.565"/>
		<circle id="superior-3" fill="#333333" cx="851.793" cy="446.646" r="4.565"/>
		<circle id="superior-2" fill="#333333" cx="851.793" cy="446.646" r="4.565"/>
		<circle id="superior-1_2_" fill="#333333" cx="851.793" cy="446.646" r="4.565"/>
	</g>
</g>
</svg>
